Coordinates
version=1
nRows=16
nColumns=40
inDegrees=yes

Units are S.I. units (second, meters, Newtons, ...)
Angles are in degrees.

endheader
time	pelvis_tilt	pelvis_list	pelvis_rotation	pelvis_tx	pelvis_ty	pelvis_tz	hip_flexion_r	hip_adduction_r	hip_rotation_r	knee_angle_r	knee_angle_r_beta	ankle_angle_r	subtalar_angle_r	mtp_angle_r	hip_flexion_l	hip_adduction_l	hip_rotation_l	knee_angle_l	knee_angle_l_beta	ankle_angle_l	subtalar_angle_l	mtp_angle_l	lumbar_extension	lumbar_bending	lumbar_rotation	arm_flex_r	arm_add_r	arm_rot_r	elbow_flex_r	pro_sup_r	wrist_flex_r	wrist_dev_r	arm_flex_l	arm_add_l	arm_rot_l	elbow_flex_l	pro_sup_l	wrist_flex_l	wrist_dev_l
     19.19000000	     -6.02356585	     -5.23132750	      3.35824232	      1.01352833	      0.93074786	      0.49632304	     14.66650373	      2.89384823	    -21.40294821	     14.03511505	     14.03511505	      8.11810555	      4.49769246	     -4.49341843	     37.53157899	    -14.26246454	      0.36745144	     70.87564468	     70.87564468	     10.47362592	    -17.59576419	      8.34455095	    -11.44222945	      6.72287349	      5.52515877	     16.40896576	    -16.46760436	     -3.49243746	     32.97741700	     45.60168065	      0.00000000	      0.00000000	      5.18087285	     -8.92278965	      3.19169013	     43.38030744	     45.80858252	      0.00000000	      0.00000000
     19.20157143	     -6.07390225	     -5.20798639	      3.45490065	      1.01177724	      0.93070354	      0.49684160	     14.22971302	      2.96195196	    -21.32123327	     13.99152607	     13.99152607	      8.43335218	      4.31504046	     -4.57764382	     39.25855872	    -14.16138862	      0.55162439	     70.03982192	     70.03982192	     10.41295290	    -17.84061149	      8.45784263	    -11.55979161	      6.60669998	      5.30334551	     19.06718638	    -16.38970358	     -3.48336666	     34.41897272	     45.56858102	      0.00000000	      0.00000000	      3.45849702	     -9.01511736	      3.28413123	     41.35563421	     45.77737485	      0.00000000	      0.00000000
     19.21314286	     -6.09421060	     -5.20214057	      3.54600881	      1.01019951	      0.93069918	      0.49742928	     13.70097985	      3.10885632	    -21.06790663	     13.82773099	     13.82773099	      8.78527064	      3.92095335	     -4.63065015	     40.79603399	    -14.12180414	      0.64610648	     68.98413578	     68.98413578	     10.38615016	    -17.95820278	      8.92222751	    -11.68570722	      6.52100682	      5.50913779	     21.34133129	    -16.71240101	     -2.51124236	     35.93741764	     45.49481469	      0.00000000	      0.00000000	      2.94467411	     -8.42669789	      2.20503861	     36.82633387	     45.93290945	      0.00000000	      0.00000000
     19.22471429	     -6.09117540	     -5.20565494	      3.63981199	      1.00860760	      0.93063706	      0.49788930	     13.15178092	      3.24627835	    -20.90666260	     13.65833346	     13.65833346	      9.11438826	      3.68663666	     -4.65946726	     42.16574004	    -14.02569320	      0.76570527	     67.71420967	     67.71420967	     10.26158878	    -18.11847999	      9.30261773	    -11.86025710	      6.45388365	      5.31514956	     23.83601707	    -16.61153880	     -2.46636717	     37.54400597	     45.45172797	      0.00000000	      0.00000000	      1.33211847	     -8.48620945	      2.09452770	     35.00418457	     45.92841628	      0.00000000	      0.00000000
     19.23628571	     -6.07929375	     -5.23351521	      3.73609337	      1.00710599	      0.93050982	      0.49833074	     12.57739834	      3.42123676	    -20.70441282	     13.45109778	     13.45109778	      9.44321960	      3.38826183	     -4.69764351	     43.37628331	    -13.92980248	      0.89781416	     66.22422889	     66.22422889	     10.14408430	    -18.20657711	      9.82980718	    -12.02958496	      6.36271357	      5.20688464	     26.20733969	    -16.52744535	     -2.33134222	     39.12222207	     45.40368971	      0.00000000	      0.00000000	     -0.00736262	     -8.44298736	      1.94276023	     32.92683893	     45.93389494	      0.00000000	      0.00000000
     19.24785714	     -6.12526135	     -5.27004042	      3.81126051	      1.00561315	      0.93026185	      0.49862511	     12.04258287	      3.62730835	    -20.35139805	     13.15782065	     13.15782065	      9.62964892	      2.87090497	     -4.94840522	     44.51136515	    -13.78761517	      1.04217605	     64.55159464	     64.55159464	     10.35083681	    -18.17659979	     11.15232119	    -12.13110000	      6.33043480	      5.67485377	     27.86664380	    -17.21630753	     -1.05147670	     41.53282213	     45.28337654	      0.00000000	      0.00000000	      0.06234082	     -7.80757228	      0.27851974	     28.02270941	     46.21582841	      0.00000000	      0.00000000
     19.25942857	     -6.15351355	     -5.32209330	      3.93296011	      1.00422066	      0.92994824	      0.49875397	     11.45817135	      3.81074936	    -20.23223514	     12.85068419	     12.85068419	      9.93588446	      2.72740434	     -5.02198496	     45.42698199	    -13.58697369	      1.23798896	     62.55224669	     62.55224669	     10.20046849	    -18.18375007	     11.51731106	    -12.25271579	      6.29398256	      5.46652269	     30.10948809	    -17.01757042	     -1.09153044	     43.24604370	     45.23984543	      0.00000000	      0.00000000	     -1.44226789	     -7.88185084	      0.04517233	     26.79078551	     46.23330690	      0.00000000	      0.00000000
     19.27100000	     -6.19887908	     -5.38078652	      4.05459731	      1.00290348	      0.92957984	      0.49874969	     10.85391809	      4.00992109	    -20.05939653	     12.47346737	     12.47346737	     10.22152379	      2.53982637	     -5.12274941	     46.17246693	    -13.34242917	      1.46062898	     60.28379688	     60.28379688	     10.05852463	    -18.07955190	     11.85164975	    -12.33631888	      6.26940031	      5.34438824	     32.19413138	    -16.84561547	     -1.06300717	     45.05450332	     45.18786700	      0.00000000	      0.00000000	     -2.76586427	     -7.91784499	     -0.15328949	     25.50197101	     46.25099682	      0.00000000	      0.00000000
     19.28257143	     -6.28236886	     -5.52751395	      4.17078851	      1.00167638	      0.92903578	      0.49867043	     10.22951619	      4.34132425	    -19.77697537	     11.93428297	     11.93428297	     10.21759946	      2.08460045	     -5.79034000	     46.79520304	    -13.13858002	      1.77880719	     57.76158523	     57.76158523	      9.79703815	    -17.82931026	     11.61116140	    -12.38734177	      6.32927429	      5.75999194	     33.19434992	    -17.56025171	     -0.22931719	     49.10719396	     45.04072812	      0.00000000	      0.00000000	     -3.30062307	     -7.66534345	     -1.56474691	     23.07796896	     46.52909510	      0.00000000	      0.00000000
     19.29414286	     -6.35175906	     -5.60160016	      4.30468103	      1.00061828	      0.92854440	      0.49835290	      9.56106785	      4.54519485	    -19.68639216	     11.42997597	     11.42997597	     10.52793218	      2.11824841	     -5.87985526	     47.15763978	    -12.79149328	      2.11730923	     54.96801330	     54.96801330	      9.73738722	    -17.42370944	     11.79360913	    -12.39546168	      6.31452133	      5.47275993	     35.20607747	    -17.23207419	     -0.35438614	     50.90437043	     44.99848631	      0.00000000	      0.00000000	     -4.69123216	     -7.75921604	     -1.73493764	     22.22996251	     46.53904363	      0.00000000	      0.00000000
     19.30571429	     -6.43141032	     -5.73572562	      4.44201812	      0.99970241	      0.92795754	      0.49793610	      8.85251879	      4.82237844	    -19.61103654	     10.83920400	     10.83920400	     10.77598039	      2.17090280	     -6.01111864	     47.34768518	    -12.48786140	      2.51018052	     51.96433080	     51.96433080	      9.69508607	    -16.75100089	     11.79345873	    -12.37258860	      6.37081937	      5.22069147	     36.98752517	    -16.89848694	     -0.40137784	     53.17795183	     44.93514226	      0.00000000	      0.00000000	     -6.06244870	     -7.81970068	     -1.91289096	     21.51201621	     46.55128124	      0.00000000	      0.00000000
     19.31728571	     -6.49567102	     -5.90239068	      4.58395480	      0.99905747	      0.92729700	      0.49734696	      8.07247640	      5.13259312	    -19.54738084	     10.17527951	     10.17527951	     11.00727804	      2.31130845	     -6.19852550	     47.32004824	    -12.20998840	      2.92291409	     48.78638942	     48.78638942	      9.72154751	    -15.84570608	     11.64139937	    -12.33918658	      6.47089179	      5.00149609	     38.49672460	    -16.62800881	     -0.40357008	     55.94208001	     44.85307013	      0.00000000	      0.00000000	     -7.41022040	     -7.85879771	     -2.10823318	     21.01476594	     46.56597549	      0.00000000	      0.00000000
     19.32885714	     -6.60238351	     -6.10950527	      4.69614032	      0.99861625	      0.92647040	      0.49674246	      7.30915639	      5.49037245	    -19.55521382	      9.46733478	      9.46733478	     11.09905934	      2.47710394	     -6.73968995	     47.09962297	    -12.03462891	      3.20319402	     45.37497260	     45.37497260	      9.44897383	    -14.83915674	     10.73422732	    -12.30108829	      6.60923486	      5.54557085	     38.85635828	    -17.39939204	     -0.38735674	     61.05823484	     44.71020593	      0.00000000	      0.00000000	     -8.56845806	     -7.94028092	     -2.64213706	     21.32999689	     46.64422792	      0.00000000	      0.00000000
     19.34042857	     -6.64685822	     -6.30896869	      4.80939674	      0.99848361	      0.92565788	      0.49594903	      6.46225055	      5.82527936	    -19.56586381	      8.79674350	      8.79674350	     11.36942895	      2.77901420	     -6.82933792	     46.65600376	    -11.84623280	      3.47256398	     41.99343517	     41.99343517	      9.62296482	    -13.68172019	     10.95758672	    -12.19900976	      6.76465878	      5.24825372	     40.38249674	    -16.89716871	     -0.52871760	     63.50510273	     44.65214775	      0.00000000	      0.00000000	     -9.87064591	     -7.94070045	     -2.70012235	     20.89571170	     46.62596099	      0.00000000	      0.00000000
     19.35200000	     -6.68955172	     -6.53879659	      4.90231406	      0.99868889	      0.92472003	      0.49507218	      5.57225000	      6.19101415	    -19.63822095	      8.08713155	      8.08713155	     11.64070816	      3.23911937	     -6.91319891	     46.04551637	    -11.73475295	      3.59544198	     38.63820081	     38.63820081	      9.82960007	    -12.51604762	     11.34965898	    -12.09875605	      6.94345143	      5.12870207	     41.44509285	    -16.63781032	     -0.67437447	     66.83889028	     44.56789254	      0.00000000	      0.00000000	    -11.23207387	     -7.95519825	     -2.81015093	     21.05090931	     46.60706944	      0.00000000	      0.00000000
     19.36357143	     -6.71169415	     -6.69835010	      4.94329748	      0.99924562	      0.92369573	      0.49407172	      4.70875516	      6.43670630	    -19.70632762	      7.55749655	      7.55749655	     12.02139932	      3.76702419	     -6.94538639	     45.23259246	    -11.61709793	      3.48973665	     35.38337065	     35.38337065	     10.08108157	    -11.46988842	     12.13738289	    -11.98823149	      7.02987613	      5.53003057	     41.79079294	    -16.95471223	     -1.01018992	     71.12587700	     44.47846206	      0.00000000	      0.00000000	    -12.53650484	     -8.08348872	     -2.87688681	     21.90467836	     46.56450380	      0.00000000	      0.00000000
